# xmcd
#
# Track frame offsets:
#	150
#	29400
#	44087
#	51780
#	75721
#	88923
#	111882
#	130470
#	149873
#	172448
#	189448
#	211459
#	229543
#	242649
#	252603
#	272328
#	284290
#	297273
#	320376
#
# Disc length: 4754 seconds
#
# Revision: 1
# Processed by: cddbd v1.5.2PL0 Copyright (c) Steve Scherf et al.
# Submitted via: audiograbber 1.83.01
#
DISCID=30129013
DTITLE=^Various Artists - Beerdrinkers and Hellraisers
DYEAR=2014
DGENRE=Metal
TTITLE0=Lowbau - Million Years of Rain
TTITLE1=Lowbau - Moneyfest
TTITLE2=Black Mood - Toxic Hippies
TTITLE3=Black Mood - In the Hands of Bayou
TTITLE4=Stonehead - Heaven Ain't a Good Place to Be
TTITLE5=Stonehead - Men of Retribution
TTITLE6=Fyretyre - Worthless Life
TTITLE7=Fyretyre - Desert Rodeo
TTITLE8=Stunner - Ten Past Ten
TTITLE9=Stunner - Collapse
TTITLE10=Minetaur - Screw You
TTITLE11=Minetaur - I Didn't Come Here To Die
TTITLE12=Big Trunk - Mobile Priest
TTITLE13=Big Trunk - Bluesman
TTITLE14=Los Barricos - The Shape
TTITLE15=Los Barricos - El Torero Escape Plan
TTITLE16=Doublewide - Big Berta (sampler edit)
TTITLE17=Doublewide - XIII (sampler edit)
TTITLE18=From Yuggoth - R'lyeh Calling (sampler edit)
EXTD=
EXTT0=
EXTT1=
EXTT2=
EXTT3=
EXTT4=
EXTT5=
EXTT6=
EXTT7=
EXTT8=
EXTT9=
EXTT10=
EXTT11=
EXTT12=
EXTT13=
EXTT14=
EXTT15=
EXTT16=
EXTT17=
EXTT18=
PLAYORDER=
